<svg width="50" height="49" fill="none" xmlns="http://www.w3.org/2000/svg"><path fill-rule="evenodd" clip-rule="evenodd" d="M7.431 8.077c-3.514 4.442-6.623 8.376-6.91 8.74L0 17.483 2.478 28.39 4.955 39.3l10.023 4.85L25 49l10.022-4.85 10.023-4.851 2.477-10.909L50 17.482l-.521-.664c-.287-.366-3.396-4.299-6.91-8.741L36.18 0H13.82L7.43 8.077zm21.165-.505C26.68 9.985 25.063 11.96 25 11.96c-.063 0-1.68-1.974-3.596-4.387l-3.481-4.386h14.154l-3.481 4.386zm-9.791 1.776c2.108 2.662 3.903 4.954 3.99 5.092.135.218-.265.787-2.882 4.107-2.398 3.042-3.096 3.845-3.316 3.808-.33-.056-12.03-4.954-12.199-5.107-.063-.057 1.838-2.572 4.226-5.586 6.269-7.916 5.966-7.556 6.172-7.339.097.102 1.9 2.364 4.009 5.025zm22.082 1.7c2.484 3.138 4.484 5.737 4.444 5.778-.083.083-12.308 2.668-12.362 2.613-.019-.02.692-3.246 1.58-7.17.89-3.924 1.662-7.087 1.719-7.03.056.058 2.135 2.672 4.619 5.81zm-9.774 2.174c-.616 2.705-1.144 4.942-1.173 4.97-.029.03-.693-.743-1.476-1.717-1.213-1.51-1.4-1.807-1.267-2.02.338-.542 4.925-6.263 4.979-6.21.031.032-.447 2.271-1.063 4.977zm-4.725 5.697c1.101 1.382 1.239 1.611 1.019 1.701-.14.058-1.504.36-3.032.673-1.528.313-2.858.596-2.957.628-.117.04-.141-.003-.07-.125.283-.476 3.594-4.538 3.675-4.509.05.018.665.753 1.365 1.632zm19.804 1.221c-.042.135-.765 3.284-1.605 6.998-.841 3.715-1.565 6.906-1.608 7.09l-.08.337-.321-.336c-.466-.487-8.973-11.261-9.05-11.46-.044-.117 1.813-.566 6.225-1.504 3.458-.736 6.34-1.345 6.401-1.353.063-.008.08.094.038.229zM9.359 22.799c2.884 1.212 5.246 2.251 5.248 2.309.003.057-1.668 2.212-3.713 4.788-3.097 3.903-3.735 4.638-3.826 4.41-.06-.15-.741-3.093-1.514-6.54a818.057 818.057 0 00-1.524-6.72c-.065-.248-.072-.452-.017-.452.056 0 2.461.992 5.346 2.205zM28.696 23.9c-.039.135-1.106 4.819-2.37 10.41s-2.345 10.268-2.402 10.393c-.088.192-1.268-.336-7.533-3.371-4.086-1.98-7.446-3.653-7.468-3.719-.022-.065 2.04-2.743 4.583-5.95l4.623-5.832 5.067-1.075c2.787-.591 5.181-1.08 5.32-1.087.178-.009.231.06.18.231zm7.693 7.618c2.543 3.213 4.63 5.922 4.637 6.02.017.199-13.488 6.813-13.626 6.675-.046-.046.807-4.016 1.896-8.823 2.41-10.635 2.248-9.965 2.37-9.828.056.063 2.181 2.743 4.723 5.956z" fill="url(#paint0_linear)"/><defs><linearGradient id="paint0_linear" x1="0" y1="30.891" x2="50.151" y2="17.285" gradientUnits="userSpaceOnUse"><stop stop-color="#3970FF"/><stop offset="1" stop-color="#17B9FE"/></linearGradient></defs></svg>