<svg version="1.1" id="Layer_1" xmlns="http://www.w3.org/2000/svg" x="0" y="0" viewBox="0 0 60 60" xml:space="preserve"><style>.st0{fill:#04a1fc}.st1{fill:#1568c9}.st2{fill:#001564}.st3{fill:#a4cef2}.st4{fill:#fff}.st5{fill:#464796}.st6{fill:#31357c}.st7{fill:#00cfff}.st8{opacity:.2}.st9{fill:#000072}.st11{fill:#000271}.st15{fill:#3ed2ff}</style><path class="st0" d="M56.2 23.9c-.5 3.7-1.4 7-1.9 9.2-.4 1.5-.7 2.4-.7 2.4l-2.4-3-.8-5s.9-4.9 4.2-13.4c.1.4.3.7.4 1.1 1.2 2.8 1.8 4.7 1.2 8.7z"/><path class="st1" d="M56.2 23.9c-.5 3.7-1.4 7-1.9 9.2-.8-.1-1.4-1.2-1.4-1.2s1.5-4.6 2.2-8.5c.5-2.7.1-6.1-.1-8 1.2 2.6 1.8 4.5 1.2 8.5z"/><path class="st2" d="M53.7 36.1c-.1 0-.3 0-.3-.1L51 33l-.1-.1-.8-5v-.1s.9-5 4.2-13.4c0-.1.1-.3.4-.3.1 0 .3.1.4.3.1.3.3.7.4.9v.1c1.1 2.7 1.7 4.5 1 8.7-.5 3.7-1.4 7-1.9 9.2-.4 1.5-.7 2.4-.7 2.4.1.3.1.3-.2.4zm-2-3.5l1.9 2.3c.1-.4.3-1.1.4-1.8.5-2.2 1.4-5.6 1.9-9.2.5-4.1 0-5.8-1.1-8.3v-.1c-2.7 7.3-3.7 11.8-3.8 12.3l.7 4.8z"/><path class="st0" d="M46.5 23.5s-.1-9.5.8-19.8c1.2 1.6 3.4 4.1 4.1 6.6 1.4 5.4 1.8 11.9 1.4 16-.3 2.3-1.2 4.1-1.2 4.1l-2.7-1.9-2.4-5z"/><path class="st1" d="M50.1 8.2s1.8 8.9 1.8 12.5c0 1.8-.3 4.1-.4 5.6-1.2 0-1.2.7-1.1 1.5.1.5.1 1.4.5 1.8 0 0 1.6-.4 1.9-1.4.3-1.1.1-9.3-.4-11.8-.6-2.5-.6-7-2.3-8.2zM10 26.6c0 2.2-1.1 2.8-1.1 2.8l-1.2-.7c-.3-.7-.4-1.4-.5-2.2-.4-4.1.1-10.6 1.4-16 .5-2.2 2.2-4.3 3.4-5.8 0 .1-3.4 6.5-3.5 12.6 0 6.1 0 10.5 1.5 9.3z"/><path class="st2" d="M51.6 31h-.3l-2.7-1.9-.1-.1-2.3-5.1v-.1c0-.1-.1-9.6.8-19.8 0-.1.1-.3.3-.3.1 0 .3 0 .4.1s.3.4.5.7c1.2 1.6 3 3.8 3.7 6.2 1.2 5.3 1.9 11.8 1.5 16.1C53 29.2 52 31 52 31h-.4c.1 0 0 0 0 0zm-2.4-2.5l2.3 1.6c.3-.5.9-1.9 1.1-3.5.4-4.3-.1-10.7-1.4-15.8-.5-2.2-2.2-4.2-3.4-5.8-.8 9.2-.8 17.7-.8 18.7l2.2 4.8z"/><path class="st3" d="M48 8.6s-.4 11-.3 12.7c.1 1.8 1.5 4.2 1.6 1.8.2-2.6-.7-16.7-1.3-14.5z"/><path class="st4" d="M55.5 35.4c0 2.7 0 4.9-1.1 4.9s-1.9-2.2-1.9-4.9.8-4.9 1.9-4.9c1.1.1 1.1 2.2 1.1 4.9z"/><path class="st2" d="M54.4 40.7c-1.5 0-2.3-2.7-2.3-5.3s.8-5.3 2.3-5.3c.9 0 1.2 1.2 1.2 1.6.1.8.1 2 .1 3.3v.8c0 1.4 0 2.4-.1 3.3 0 .4-.1 1.6-1.2 1.6zm0-9.7c-.7 0-1.6 1.9-1.6 4.5s.8 4.5 1.6 4.5c.1 0 .4 0 .5-.9.1-.8.1-1.9.1-3.1v-1c0-1.2 0-2.4-.1-3.1-.1-.9-.4-.9-.5-.9z"/><path class="st5" d="M53.7 35.3c0 3.4 0 6.2-1.5 6.2s-2.8-2.8-2.8-6.2 1.2-6.2 2.8-6.2 1.5 2.8 1.5 6.2z"/><path class="st6" d="M51.6 38.1v.1c-.1 2 0 3.4.8 3.3.8-.1.9-1.6 1.2-5.7-.4 1.8-2 2.3-2 2.3z"/><path class="st2" d="M52.1 41.9c-.9 0-1.8-.7-2.3-2-.5-1.2-.8-2.8-.8-4.6s.3-3.4.8-4.6c.5-1.4 1.4-2 2.3-2 1.4 0 1.6 1.6 1.8 2.2.1 1.1.1 2.6.1 4.4s0 3.3-.1 4.5c-.2.5-.5 2.1-1.8 2.1zm0-12.4c-.5 0-1.2.5-1.6 1.6-.5 1.1-.8 2.7-.8 4.3s.3 3.1.8 4.3c.4 1.1 1.1 1.6 1.6 1.6 1.2 0 1.2-2.8 1.2-5.8 0-3.2 0-6-1.2-6z"/><path class="st0" d="M9.4 27.7s-.9-4.9-4.2-13.4C4 17.4 3 19.2 3.7 23.9c1 6.1 2.5 11.8 2.5 11.8l2.4-3 .8-5z"/><path class="st1" d="M3.9 23.9c.5 3.7 1.4 7 1.9 9.2.8-.1 1.4-1.2 1.4-1.2s-.9-4.6-1.8-8.7c-.5-2.7-.5-6-.4-7.9-1.1 2.7-1.8 4.6-1.1 8.6z"/><path class="st2" d="M6.3 36.1c-.3 0-.3-.1-.4-.3 0 0-1.6-5.7-2.6-11.8-.7-4.5.1-6.4 1.2-8.9.1-.3.2-.6.3-.8.1-.1.2-.3.4-.3.1 0 .3.1.4.3 3.3 8.4 4.2 13.4 4.2 13.4v.1l-.8 5s0 .1-.1.1l-2.4 3c.1.1-.1.2-.2.2zm-.9-20.7c-1.1 2.6-1.8 4.3-1.1 8.5.7 4.7 1.9 9.3 2.3 11l1.8-2.3.6-4.9c0-.5-.9-5-3.6-12.3z"/><path class="st0" d="M13.5 23.5l-2.3 5.1-2.7 1.9s-.4-.7-.8-1.9c-.3-.7-.4-1.4-.5-2.2-.4-4.1.1-10.6 1.4-16 .5-2.2 2.2-4.3 3.4-5.8.4-.3.5-.5.8-.8.8 10.2.7 19.7.7 19.7z"/><path class="st2" d="M8.5 31s-.2 0 0 0c-.1 0-.3-.1-.3-.1s-.4-.9-.8-2c-.3-.8-.4-1.5-.5-2.3-.5-4.3.1-10.8 1.4-16.1.5-2.2 2-4.2 3.5-6 .3-.3.4-.5.5-.8.1-.1.3-.1.4-.1.1 0 .3.1.3.3 1 10.1 1 19.6.9 19.7v.1l-2.3 5.1-.1.1L8.7 31h-.2zm3.8-26c-1.4 1.8-2.8 3.7-3.4 5.7C7.7 15.8 7 22.3 7.5 26.5c.1.7.3 1.5.4 2.2.3.7.4 1.1.5 1.4l2.3-1.6 2.3-5c.1-.9.2-9.5-.7-18.5 0-.2 0-.2 0 0zm1.2 18.5z"/><path class="st3" d="M12 7.7c0 .4 0 .9-.1 1.4 0 1.4-.1 2.8-.4 4.2-.3 1.9-.8 3.8-.9 5.7-.3 2.7.4 5 1.2 7.6 0 0 .7-2.7.9-5.6.1-1.4-.3-2.8-.1-3.8.1-3-.1-11.2-.3-10.6-.3.4-.3.7-.3 1.1z"/><path class="st4" d="M4.5 35.4c0 2.7 0 4.9 1.1 4.9s1.9-2.2 1.9-4.9-.8-4.9-1.9-4.9c-1.1.1-1.1 2.2-1.1 4.9z"/><path class="st2" d="M5.6 40.7c-.9 0-1.2-1.2-1.2-1.6-.1-.8-.1-2-.1-3.3V35c0-1.4 0-2.4.1-3.3 0-.4.3-1.6 1.2-1.6 1.5 0 2.3 2.7 2.3 5.3s-.8 5.3-2.3 5.3zm0-9.7c-.1 0-.4 0-.5.9-.1.8-.1 1.9-.1 3.1v.8c0 1.2 0 2.4.1 3.1.1.9.4.9.5.9.7 0 1.6-1.9 1.6-4.5-.1-2.4-.9-4.3-1.6-4.3z"/><path class="st5" d="M6.3 35.3c0 3.4 0 6.2 1.5 6.2s2.8-2.8 2.8-6.2-1.2-6.2-2.8-6.2-1.5 2.8-1.5 6.2z"/><path class="st6" d="M8.7 38v.1c.1 2-.4 3.4-1.2 3.3-.8-.1-.9-1.6-1.2-5.7.5 1.8 2.4 2.3 2.4 2.3z"/><path class="st2" d="M7.9 41.9c-1.4 0-1.6-1.6-1.8-2.2-.1-1.2-.1-2.6-.1-4.4s0-3.3.1-4.5c.1-.5.4-2.2 1.8-2.2.9 0 1.8.7 2.3 2 .5 1.2.8 2.8.8 4.6s-.3 3.4-.8 4.6c-.6 1.5-1.5 2.1-2.3 2.1zm0-12.4c-1.2 0-1.2 2.8-1.2 5.8s0 5.8 1.2 5.8c.5 0 1.2-.5 1.6-1.6.5-1.1.8-2.7.8-4.3s-.3-3.1-.8-4.3c-.5-.9-1-1.4-1.6-1.4z"/><path class="st4" d="M51.4 33.9c1.6 11.8-3 21.5-21.4 21.5S6.4 45.6 8.6 33.9c2-11.5 5.8-21.4 21.4-21.4S49.8 22 51.4 33.9z"/><path class="st7" d="M9.7 27.7s.7 1.5.3 5.4-.4 8.9-.3 9.5-1.1.1-1.2-3c0-3.1.5-11.2 1.2-11.9zM49.1 24.3s1.2 6.6 1.5 12.3c.3 5.1-.5 8.5-1.4 9.5 2.8-3.1 3.7-14.2-.1-21.8z"/><path class="st2" d="M30 55.8c-8.8 0-15.2-2.2-18.8-6.6-3.1-3.9-4.2-9.2-3-15.4.9-5.1 2.3-11 5.7-15.2 3.5-4.3 8.8-6.5 16.1-6.5s12.6 2 16.3 6.4c2.8 3.4 4.6 8.3 5.6 15.4.9 6.6-.3 11.9-3.4 15.6-3.7 4.2-10 6.3-18.5 6.3zm0-42.9c-7 0-12.1 2-15.4 6.2C11.3 23.2 9.9 29 9 34c-1.1 6.1-.1 11.1 2.8 14.6C15.3 52.8 21.4 55 30 55c8.4 0 14.4-2 17.7-6 3.1-3.5 4.2-8.5 3.3-15-1.5-10.9-5.1-21.1-21-21.1z"/><path class="st7" d="M28.1 40.9s-1.6 4.7-5.6 4.2c3.8.8 7-1.2 7.7-3.8-.7-.2-2.1-.4-2.1-.4z"/><g><path class="st7" d="M32.3 40.9s.9 4.2 4.3 4.1c-1.9.3-5-.3-6.1-3.5l1.8-.6z"/></g><g class="st8"><path class="st9" d="M25 32.2s3.4.4 5 .4c2.2-.1 5.6-.4 5.6-.4s-8-1.8-10.6 0z"/></g><g class="st8"><path class="st9" d="M49.8 44.9c-.8 1.6-2.2 3-3.8 3.8-2.7 1.4-7.2 2.2-10 0-1-.7-1.5-1.9-2.2-2.7-1.5-1.8-3.5-3.9-3.5-3.9s-2.4 2-4.1 3.9c-.7.8-1.4 2-2.2 2.7-2.7 2.2-6.9 1.8-10 0-1.6-.9-3-2.2-3.8-3.8-.1-.4-.4-.8-.5-1.2 0 0 2.4 13.4 20.3 11.8 17.9 1.8 20.3-11.8 20.3-11.8-.1.4-.2.8-.5 1.2z"/></g><g class="st8"><path class="st9" d="M32.3 31.2s6.5 3 7.7 6.9c1.2 3.8 6.9 2 7-1.5.2-3.5-12-6.6-14.7-5.4z"/></g><g class="st8"><path class="st9" d="M27.7 31.2s-6.5 3-7.7 6.9-6.9 2-7-1.5c-.2-3.5 12-6.6 14.7-5.4z"/></g><g><path d="M36 36.8c0 1.9-2.7 4.3-6 4.3s-6-2.4-6-4.3 2.7-1.8 6-1.8 6-.1 6 1.8z" fill="#0e236e"/><path class="st11" d="M30 41.8c-1.6 0-3.4-.5-4.6-1.6-1.2-.9-2-2.3-2-3.4 0-.5.1-1.1.5-1.5.9-.9 3-.9 5.4-.9h1.4c2.4 0 4.5 0 5.4.9.4.4.5.9.5 1.5 0 1.2-.8 2.4-2 3.4-1.2 1.1-3 1.6-4.6 1.6zm-1.2-6.1c-1.8 0-3.4 0-3.9.5-.1.1-.1.3-.1.5 0 1.5 2.3 3.7 5.3 3.7s5.3-2.2 5.3-3.7c0-.3-.1-.4-.1-.5-.5-.5-2.4-.5-4.5-.5h-2z"/></g><g><path class="st11" d="M35.6 46.5c-.3 0-.7-.1-.9-.1-.3-.1-.5-.1-.8-.3-.5-.3-.9-.5-1.4-.8-.8-.7-1.2-1.4-1.6-1.9-.3-.5-.5-1.1-.5-1.4 0-.3 0-.5.1-.5 0 0 .3.1.4.4.3.3.5.7.9 1.1.4.4.9.9 1.6 1.2.3.1.7.4.9.5h.2c.1 0 .1 0 .3.1.1 0 .4.1.5.1h1.1c.1 0 .3-.1.5-.1.1 0 .3-.1.4-.1.5-.3.9-.8 1.4-1.4.1-.3.3-.5.4-.7.1-.3.3-.4.3-.5 0-.1.1-.1.1-.3l.1-.1c0-.1.1-.1.1-.1.3 0 .4.4.3 1.1 0 .3-.1.7-.3 1.1-.1.4-.3.8-.5 1.1-.3.4-.5.7-.9.9-.4.3-.8.4-1.2.5-.4.1-.7.1-.9.1H36c-.3.1-.4.1-.4.1z"/></g><g><path d="M48.3 27.7c-1.4-9.1-11.8-9.3-18.6-9.3s-16.5 2-18.4 9.3c-2.4 9.5 3 11.9 7 9.6s4.9-5.7 11.1-6c6.2.3 8.8 3.5 12.9 5.8 4.2 2.4 7.5.2 6-9.4z" fill="#022e9b"/><path class="st2" d="M15.4 38.5c-1.1 0-2-.3-3-.9-1.4-.9-3.3-3.5-1.6-9.9.9-3.4 3.4-6.1 7.6-7.7 4.2-1.8 8.8-1.9 11.1-1.9 3.7 0 7.9.1 11.5 1.4 2 .7 3.7 1.6 4.9 2.8 1.4 1.5 2.3 3.3 2.6 5.6.8 5.4.3 8.9-1.6 10.3-1.2.8-2.8.7-4.7-.4-1.1-.7-2.2-1.4-3.1-2-2.7-1.9-5.1-3.7-9.6-3.8-4.1.1-5.7 1.6-7.6 3.3-.9.8-2 1.8-3.4 2.6-.9.4-2 .6-3.1.6zm14.2-19.9c-2.3 0-6.8.3-10.8 1.9-3.9 1.6-6.2 4.1-7.2 7.2-.5 2.3-.8 4.3-.4 6 .3 1.4.8 2.4 1.8 3.1 1.4 1.1 3.4 1.1 5.3 0 1.4-.8 2.3-1.6 3.3-2.4 1.9-1.8 3.8-3.4 8.1-3.5 4.7.1 7.5 2 10 3.9.9.7 1.9 1.4 3 1.9 1.1.7 2.7 1.2 3.9.4 1.6-1.1 2-4.5 1.4-9.5-.5-3.9-2.8-6.5-7-7.9-3.7-.9-7.7-1.1-11.4-1.1z"/></g><g><path d="M15.4 37.2c-.7 0-1.8-.3-2.6-1.2-.8-1-1.8-3.1-.5-8 .9-3.8 4.1-5.7 6.8-7 2.6-1.2 6.1-1.9 10.6-1.9 4.2 0 8 .2 10.8 1.3 4.1 1.6 6.2 3.9 6.8 7.5.9 5.8-.1 8-.8 8.7-.4.4-.8.5-1.4.5-.7 0-1.4-.3-2.2-.7-1.1-.5-2-1.2-3-1.9-2.7-1.9-5.6-3.8-10.4-4.1-4.6.1-6.6 1.9-8.5 3.7-.9.8-1.9 1.6-3.1 2.3-.9.5-1.7.8-2.5.8zm14.2-17.5c-4.3 0-7.9.5-10.3 1.8-2.7 1.2-5.4 3.1-6.4 6.5-1.2 4.6-.3 6.6.4 7.5s1.5.9 2 .9c.7 0 1.4-.1 2-.5 1.2-.7 2.2-1.5 3-2.3 2-1.8 4.2-3.7 8.9-3.8 5.1.1 8 2.2 10.8 4.2.9.7 1.9 1.4 2.8 1.9.7.4 1.3.6 1.7.6.6 0 1.1-.2 1.2-.4.4-.4 1.6-2.5.7-8-.5-3.4-2.3-5.5-6.1-7-2.8-1.2-6.5-1.4-10.7-1.4z" fill="#3b90f5"/></g><g class="st8"><path class="st9" d="M30 12.5s13.7 2.3 19.1 10.8c-1.3-3.4-5.7-10.8-19.1-10.8z"/></g><g><path d="M31.1 41.5s1.4 2.3 2.6 3.1c-1.9-.8-2.8-2.4-3.1-3.1h.5z"/></g><path class="st2" d="M30.3 41.8c0-.1 0-.1 0 0v-.1l-.9-.1s-.5 1.2-1.8 2.3c-.1.1-.4.3-.5.4-.4.3-.7.4-1.2.5-.3.1-.4.1-.7.1s-.5.1-.7.1H24.2c-.1 0-.4 0-.7-.1-.3-.1-.5-.1-.8-.4-.3-.1-.5-.4-.7-.7-.3-.3-.4-.5-.7-.8-.1-.3-.4-.5-.5-.8-.3-.4-.5-.8-.8-.7l-.1.1v.4c0 .4.1.9.5 1.6.1.3.4.7.7.9.1.1.3.3.4.5.1.1.4.3.5.4.3.1.4.3.7.4.3.1.5.1.7.3.5.1 1.1.1 1.5 0 .3 0 .5-.1.7-.1.1 0 .3 0 .4-.1h.2c.4-.1.8-.4 1.2-.7.8-.5 1.4-1.1 1.8-1.6.4-.5.7-1.1.8-1.5.3 0 .4-.3.3-.3z"/><g><path d="M33.1 36.2s-1.4-.5-1.5.5c0 1.2 2.9.8 1.5-.5z" fill="#314fa3"/></g><g class="st8"><path class="st9" d="M55.5 34.3s.3 3.7-2.2 3.8c0 1.1-.4 1.9.8 2 1.2.3 1.7-3.4 1.4-5.8z"/></g><g class="st8"><path class="st9" d="M4.4 34.3s-.3 3.7 2.2 3.8c0 1.1.4 1.9-.8 2s-1.7-3.4-1.4-5.8z"/></g><ellipse class="st15" cx="21.8" cy="28.1" rx="1.8" ry="1.6"/><ellipse class="st15" cx="38.4" cy="28.1" rx="1.8" ry="1.6"/></svg>